REM DIRINDEX 1\2,1\3,1\4,1\5
REM DIRNAME folder01,folder02,folder03,folder04,folder05
TITLE ""
FILE "P1Q_t_0512-0521.mp3" MP3
  TRACK 01 AUDIO
    TITLE "3:cjc005_2438"
    INDEX 01 00:00:00
  TRACK 02 AUDIO
    TITLE "0:"
    INDEX 01 00:01:09
  TRACK 03 AUDIO
    TITLE "4:cjc005_2439"
    INDEX 01 00:01:42
  TRACK 04 AUDIO
    TITLE "0:"
    INDEX 01 00:03:12
  TRACK 05 AUDIO
    TITLE "5:cjc005_2440"
    INDEX 01 00:03:35
  TRACK 06 AUDIO
    TITLE "0:"
    INDEX 01 00:06:55
  TRACK 07 AUDIO
    TITLE "3:cjc005_2441"
    INDEX 01 00:07:27
  TRACK 08 AUDIO
    TITLE "0:"
    INDEX 01 00:08:40
  TRACK 09 AUDIO
    TITLE "4:cjc005_2442"
    INDEX 01 00:08:68
  TRACK 10 AUDIO
    TITLE "0:"
    INDEX 01 00:10:37
  TRACK 11 AUDIO
    TITLE "5:cjc005_2443"
    INDEX 01 00:10:65
  TRACK 12 AUDIO
    TITLE "0:"
    INDEX 01 00:15:03
  TRACK 13 AUDIO
    TITLE "3:cjc005_2444"
    INDEX 01 00:15:54
  TRACK 14 AUDIO
    TITLE "0:"
    INDEX 01 00:16:67
  TRACK 15 AUDIO
    TITLE "4:cjc005_2445"
    INDEX 01 00:17:18
  TRACK 16 AUDIO
    TITLE "0:"
    INDEX 01 00:18:37
  TRACK 17 AUDIO
    TITLE "5:cjc005_2446"
    INDEX 01 00:18:60
  TRACK 18 AUDIO
    TITLE "0:"
    INDEX 01 00:22:52
  TRACK 19 AUDIO
    TITLE "3:cjc005_2447"
    INDEX 01 00:23:34
  TRACK 20 AUDIO
    TITLE "0:"
    INDEX 01 00:24:49
  TRACK 21 AUDIO
    TITLE "4:cjc005_2448"
    INDEX 01 00:25:01
  TRACK 22 AUDIO
    TITLE "0:"
    INDEX 01 00:26:28
  TRACK 23 AUDIO
    TITLE "5:cjc005_2449"
    INDEX 01 00:26:52
  TRACK 24 AUDIO
    TITLE "0:"
    INDEX 01 00:30:34
  TRACK 25 AUDIO
    TITLE "3:cjc005_2450"
    INDEX 01 00:31:12
  TRACK 26 AUDIO
    TITLE "0:"
    INDEX 01 00:32:13
  TRACK 27 AUDIO
    TITLE "4:cjc005_2451"
    INDEX 01 00:32:43
  TRACK 28 AUDIO
    TITLE "0:"
    INDEX 01 00:34:10
  TRACK 29 AUDIO
    TITLE "5:cjc005_2452"
    INDEX 01 00:34:34
  TRACK 30 AUDIO
    TITLE "0:"
    INDEX 01 00:37:73
  TRACK 31 AUDIO
    TITLE "3:cjc005_2453"
    INDEX 01 00:38:53
  TRACK 32 AUDIO
    TITLE "0:"
    INDEX 01 00:40:13
  TRACK 33 AUDIO
    TITLE "4:cjc005_2454"
    INDEX 01 00:40:42
  TRACK 34 AUDIO
    TITLE "0:"
    INDEX 01 00:41:69
  TRACK 35 AUDIO
    TITLE "5:cjc005_2455"
    INDEX 01 00:42:18
  TRACK 36 AUDIO
    TITLE "0:"
    INDEX 01 00:45:37
  TRACK 37 AUDIO
    TITLE "3:cjc005_2456"
    INDEX 01 00:46:11
  TRACK 38 AUDIO
    TITLE "0:"
    INDEX 01 00:47:25
  TRACK 39 AUDIO
    TITLE "4:cjc005_2457"
    INDEX 01 00:47:54
  TRACK 40 AUDIO
    TITLE "0:"
    INDEX 01 00:49:04
  TRACK 41 AUDIO
    TITLE "5:cjc005_2458"
    INDEX 01 00:49:31
  TRACK 42 AUDIO
    TITLE "0:"
    INDEX 01 00:53:37
  TRACK 43 AUDIO
    TITLE "3:cjc005_2459"
    INDEX 01 00:54:15
  TRACK 44 AUDIO
    TITLE "0:"
    INDEX 01 00:55:22
  TRACK 45 AUDIO
    TITLE "4:cjc005_2460"
    INDEX 01 00:55:46
  TRACK 46 AUDIO
    TITLE "0:"
    INDEX 01 00:57:39
  TRACK 47 AUDIO
    TITLE "5:cjc005_2461"
    INDEX 01 00:57:64
  TRACK 48 AUDIO
    TITLE "0:"
    INDEX 01 01:01:13
  TRACK 49 AUDIO
    TITLE "3:cjc005_2462"
    INDEX 01 01:01:70
  TRACK 50 AUDIO
    TITLE "0:"
    INDEX 01 01:03:22
  TRACK 51 AUDIO
    TITLE "4:cjc005_2463"
    INDEX 01 01:03:47
  TRACK 52 AUDIO
    TITLE "0:"
    INDEX 01 01:05:22
  TRACK 53 AUDIO
    TITLE "5:cjc005_2464"
    INDEX 01 01:05:42
  TRACK 54 AUDIO
    TITLE "0:"
    INDEX 01 01:09:34
  TRACK 55 AUDIO
    TITLE "3:cjc005_2465"
    INDEX 01 01:10:12
  TRACK 56 AUDIO
    TITLE "0:"
    INDEX 01 01:11:37
  TRACK 57 AUDIO
    TITLE "4:cjc005_2466"
    INDEX 01 01:11:66
  TRACK 58 AUDIO
    TITLE "0:"
    INDEX 01 01:13:16
  TRACK 59 AUDIO
    TITLE "5:cjc005_2467"
    INDEX 01 01:13:44
  TRACK 60 AUDIO
    TITLE "0:"
    INDEX 01 01:17:22
